<?xml version="1.0" encoding="utf-8"?>
<!-- Generator: Adobe Illustrator 16.0.0, SVG Export Plug-In . SVG Version: 6.00 Build 0)  -->
<!DOCTYPE svg PUBLIC "-//W3C//DTD SVG 1.1//EN" "http://www.w3.org/Graphics/SVG/1.1/DTD/svg11.dtd">
<svg version="1.1" id="icons" xmlns="http://www.w3.org/2000/svg" xmlns:xlink="http://www.w3.org/1999/xlink" x="0px" y="0px"
	 width="64px" height="64px" viewBox="0 0 64 64" enable-background="new 0 0 64 64" xml:space="preserve">
<g>
	<path d="M64,6c0-3.309-2.691-6-6-6c-2.715,0-5.012,1.814-5.749,4.294C51.52,4.104,50.768,4,50,4c-2.367,0-4.618,0.938-6.296,2.583
		c-3.661-1.687-7.646-2.582-11.675-2.582c-4.627,0-9.102,1.164-13.074,3.26C17.312,5.802,15.226,5,13,5
		c-0.362,0-0.723,0.025-1.08,0.067C11.47,2.201,8.991,0,6,0C2.691,0,0,2.691,0,6c0,2.715,1.814,5.012,4.294,5.749
		C4.104,12.48,4,13.232,4,14c0,2.363,0.934,4.61,2.573,6.286C2.836,28.39,3.304,37.545,7.25,45.057C5.798,46.698,5,48.779,5,51
		c0,0.362,0.025,0.723,0.067,1.08C2.201,52.53,0,55.009,0,58c0,3.309,2.691,6,6,6c2.715,0,5.012-1.814,5.749-4.294
		C12.48,59.896,13.232,60,14,60c2.367,0,4.617-0.938,6.295-2.582c3.662,1.688,7.648,2.583,11.679,2.583
		c4.628,0,9.102-1.164,13.073-3.26C46.69,58.199,48.775,59,51,59c0.362,0,0.723-0.025,1.08-0.067C52.53,61.799,55.009,64,58,64
		c3.309,0,6-2.691,6-6c0-2.715-1.814-5.012-4.294-5.749C59.896,51.52,60,50.768,60,50c0-2.363-0.935-4.61-2.574-6.287
		c3.738-8.104,3.271-17.259-0.676-24.77C58.202,17.302,59,15.221,59,13c0-0.362-0.025-0.723-0.067-1.08C61.799,11.47,64,8.991,64,6z
		 M2,6c0-2.206,1.794-4,4-4s4,1.794,4,4c0,2.205-1.794,4-4,4C3.795,9.999,2,8.205,2,6z M6,14c0-0.69,0.1-1.365,0.295-2.015
		c2.801-0.137,5.1-2.197,5.6-4.889C12.259,7.039,12.627,7,13,7c1.499,0,2.915,0.47,4.1,1.331c-3.799,2.389-7.041,5.673-9.351,9.671
		c-0.071,0.123-0.133,0.248-0.202,0.372C6.558,17.141,6,15.605,6,14z M6,62c-2.206,0-4-1.794-4-4s1.794-4,4-4s4,1.794,4,4
		C9.999,60.205,8.205,62,6,62z M14,58c-0.69,0-1.365-0.1-2.015-0.295c-0.137-2.801-2.197-5.1-4.889-5.6C7.039,51.741,7,51.373,7,51
		c0-1.492,0.465-2.902,1.318-4.083c2.346,3.738,5.604,6.976,9.684,9.331c0.123,0.071,0.252,0.132,0.376,0.201
		C17.145,57.441,15.607,58,14,58z M62,58c0,2.206-1.794,4-4,4s-4-1.794-4-4s1.794-4,4-4C60.205,54.001,62,55.795,62,58z M58,50
		c0,0.69-0.1,1.365-0.295,2.015c-2.801,0.137-5.1,2.197-5.6,4.889C51.741,56.961,51.373,57,51,57c-1.498,0-2.913-0.469-4.098-1.33
		c3.798-2.388,7.038-5.673,9.346-9.67c0.071-0.124,0.135-0.25,0.204-0.375C57.442,46.858,58,48.395,58,50z M54.516,45
		c-4.629,8.019-13.267,13.001-22.542,13.001c-4.536,0-9.021-1.205-12.972-3.485C6.59,47.352,2.319,31.42,9.481,19.002
		c4.633-8.019,13.273-13.001,22.548-13.001c4.535,0,9.021,1.206,12.97,3.486C57.413,16.651,61.682,32.582,54.516,45z M55.682,17.083
		c-2.346-3.737-5.604-6.974-9.683-9.328c-0.124-0.071-0.254-0.133-0.379-0.202C46.854,6.56,48.393,6,50,6
		c0.69,0,1.365,0.1,2.015,0.295c0.137,2.801,2.197,5.1,4.889,5.6C56.961,12.259,57,12.627,57,13
		C57,14.492,56.535,15.902,55.682,17.083z M58,10c-2.206,0-4-1.794-4-4c0.001-2.205,1.795-4,4-4c2.206,0,4,1.794,4,4
		S60.206,10,58,10z"/>
	<path d="M47.002,32.998h-5v-1.995c0-0.002,0.001-0.003,0.001-0.005c0-1.081-0.178-2.119-0.496-3.095l4.197-4.198
		c0.391-0.391,0.391-1.023,0-1.414s-1.023-0.391-1.414,0l-3.665,3.666c-0.673-1.147-1.567-2.146-2.625-2.943v-0.015
		c0-2.101-1.086-3.948-2.725-5.021l0.644-1.503c0.218-0.508-0.018-1.096-0.525-1.313c-0.505-0.22-1.096,0.017-1.313,0.525
		l-0.64,1.493c-0.463-0.115-0.943-0.183-1.441-0.183c-0.494,0-0.971,0.066-1.431,0.18l-0.645-1.563
		c-0.211-0.511-0.799-0.749-1.307-0.543c-0.51,0.211-0.753,0.796-0.543,1.307l0.657,1.594C27.09,19.045,26,20.896,26,22.999v0.014
		c-1.059,0.797-1.952,1.796-2.626,2.943l-3.664-3.665c-0.391-0.391-1.023-0.391-1.414,0s-0.391,1.023,0,1.414l4.196,4.197
		c-0.318,0.976-0.496,2.015-0.496,3.096c0,0.004,0.002,0.006,0.002,0.01V33h-5c-0.553,0-1,0.447-1,1s0.447,1,1,1h5v2
		c0,0.007,0.004,0.013,0.004,0.02c0.002,1.072,0.178,2.104,0.494,3.074l-4.2,4.199c-0.391,0.391-0.391,1.023,0,1.414
		C18.491,45.902,18.747,46,19.003,46s0.512-0.098,0.707-0.293l3.668-3.667C25.115,45.002,28.325,47,32,47s6.885-1.998,8.622-4.96
		l3.668,3.667C44.485,45.902,44.741,46,44.997,46s0.512-0.098,0.707-0.293c0.391-0.391,0.391-1.023,0-1.414l-4.2-4.199
		c0.316-0.97,0.492-2.002,0.494-3.074c0-0.007,0.004-0.013,0.004-0.02v-2.002h5c0.553,0,1-0.447,1-1S47.555,32.998,47.002,32.998z
		 M35.778,21.741c-1.167-0.478-2.441-0.746-3.778-0.746s-2.611,0.269-3.777,0.746c0.53-1.588,2.014-2.742,3.777-2.742
		S35.247,20.153,35.778,21.741z M32,22.995c4.074,0,7.439,3.062,7.934,7.003H24.065C24.561,26.057,27.926,22.995,32,22.995z
		 M24.001,37.001c0-0.005-0.003-0.01-0.003-0.015v-2.972c0-0.005,0.003-0.01,0.003-0.015s-0.003-0.01-0.003-0.015v-1.987H31v12.933
		C27.061,44.437,24.001,41.072,24.001,37.001z M33,44.931V31.998h7.002v1.985c0,0.005-0.003,0.01-0.003,0.015
		s0.003,0.01,0.003,0.015v2.974c0,0.005-0.003,0.01-0.003,0.015C39.999,41.072,36.939,44.437,33,44.931z"/>
</g>
</svg>
